HIERARCHY
ROOT hip
{
  OFFSET 0 0 0
  CHANNELS 6 Xposition Yposition Zposition Zrotation Yrotation Xrotation
  JOINT abdomen
  {
    OFFSET 0 20.6881 -0.73152
    CHANNELS 3 Zrotation Xrotation Yrotation
    JOINT chest
    {
      OFFSET 0 11.7043 -0.48768
      CHANNELS 3 Zrotation Xrotation Yrotation
      JOINT neck
      {
        OFFSET 0 22.1894 -2.19456
        CHANNELS 3 Zrotation Xrotation Yrotation
        JOINT head
        {
          OFFSET -0.24384 7.07133 1.2192
          CHANNELS 3 Zrotation Xrotation Yrotation
          JOINT leftEye
          {
            OFFSET 4.14528 8.04674 8.04672
            CHANNELS 3 Zrotation Xrotation Yrotation
            End Site
            {
              OFFSET 1 0 0
            }
          }
          JOINT rightEye
          {
            OFFSET -3.6576 8.04674 8.04672
            CHANNELS 3 Zrotation Xrotation Yrotation
            End Site
            {
              OFFSET 1 0 0
            }
          }
        }
      }
      JOINT rCollar
      {
        OFFSET -2.68224 19.2634 -4.8768
        CHANNELS 3 Zrotation Xrotation Yrotation
        JOINT rShldr
        {
          OFFSET -8.77824 -1.95073 1.46304
          CHANNELS 3 Zrotation Xrotation Yrotation
          JOINT rForeArm
          {
            OFFSET -28.1742 -1.7115 0.48768
            CHANNELS 3 Zrotation Xrotation Yrotation
            JOINT rHand
            {
              OFFSET -22.5879 0.773209 7.07136
              CHANNELS 3 Zrotation Xrotation Yrotation
              JOINT rThumb1
              {
                OFFSET -1.2192 -0.487915 3.41376
                CHANNELS 3 Zrotation Xrotation Yrotation
                JOINT rThumb2
                {
                  OFFSET -3.37035 -0.52449 3.41376
                  CHANNELS 3 Zrotation Xrotation Yrotation
                  End Site
                  {
                    OFFSET -1.78271 -1.18214 1.43049
                  }
                }
              }
              JOINT rIndex1
              {
                OFFSET -7.75947 0.938293 5.60832
                CHANNELS 3 Zrotation Xrotation Yrotation
                JOINT rIndex2
                {
                  OFFSET -2.54057 -0.884171 1.56538
                  CHANNELS 3 Zrotation Xrotation Yrotation
                  End Site
                  {
                    OFFSET -1.62519 -0.234802 1.16502
                  }
                }
              }
              JOINT rMid1
              {
                OFFSET -8.24714 1.18213 3.41376
                CHANNELS 3 Zrotation Xrotation Yrotation
                JOINT rMid2
                {
                  OFFSET -3.10165 -0.590103 1.0647
                  CHANNELS 3 Zrotation Xrotation Yrotation
                  End Site
                  {
                    OFFSET -2.48547 -0.328903 0.83742
                  }
                }
              }
              JOINT rRing1
              {
                OFFSET -8.82822 0.546677 1.51678
                CHANNELS 3 Zrotation Xrotation Yrotation
                JOINT rRing2
                {
                  OFFSET -2.60934 -0.819778 -0.0198488
                  CHANNELS 3 Zrotation Xrotation Yrotation
                  End Site
                  {
                    OFFSET -2.33842 -0.294052 0.168128
                  }
                }
              }
              JOINT rPinky1
              {
                OFFSET -8.27202 -0.0477905 -0.4584
                CHANNELS 3 Zrotation Xrotation Yrotation
                JOINT rPinky2
                {
                  OFFSET -1.82734 -0.647385 -0.700984
                  CHANNELS 3 Zrotation Xrotation Yrotation
                  End Site
                  {
                    OFFSET -1.69225 -0.51767 -0.607171
                  }
                }
              }
            }
          }
        }
      }
      JOINT lCollar
      {
        OFFSET 2.68224 19.2634 -4.8768
        CHANNELS 3 Zrotation Xrotation Yrotation
        JOINT lShldr
        {
          OFFSET 8.77824 -1.95073 1.46304
          CHANNELS 3 Zrotation Xrotation Yrotation
          JOINT lForeArm
          {
            OFFSET 28.1742 -1.7115 0.48768
            CHANNELS 3 Zrotation Xrotation Yrotation
            JOINT lHand
            {
              OFFSET 22.5879 0.773209 7.07136
              CHANNELS 3 Zrotation Xrotation Yrotation
              JOINT lThumb1
              {
                OFFSET 1.2192 -0.487915 3.41376
                CHANNELS 3 Zrotation Xrotation Yrotation
                JOINT lThumb2
                {
                  OFFSET 3.37035 -0.52449 3.41376
                  CHANNELS 3 Zrotation Xrotation Yrotation
                  End Site
                  {
                    OFFSET 1.78271 -1.18214 1.43049
                  }
                }
              }
              JOINT lIndex1
              {
                OFFSET 7.75947 0.938293 5.60832
                CHANNELS 3 Zrotation Xrotation Yrotation
                JOINT lIndex2
                {
                  OFFSET 2.54057 -0.884171 1.56538
                  CHANNELS 3 Zrotation Xrotation Yrotation
                  End Site
                  {
                    OFFSET 1.62519 -0.234802 1.16502
                  }
                }
              }
              JOINT lMid1
              {
                OFFSET 8.24714 1.18213 3.41376
                CHANNELS 3 Zrotation Xrotation Yrotation
                JOINT lMid2
                {
                  OFFSET 3.10165 -0.590103 1.0647
                  CHANNELS 3 Zrotation Xrotation Yrotation
                  End Site
                  {
                    OFFSET 2.48547 -0.328903 0.83742
                  }
                }
              }
              JOINT lRing1
              {
                OFFSET 8.82822 0.546677 1.51678
                CHANNELS 3 Zrotation Xrotation Yrotation
                JOINT lRing2
                {
                  OFFSET 2.60934 -0.819778 -0.0198488
                  CHANNELS 3 Zrotation Xrotation Yrotation
                  End Site
                  {
                    OFFSET 2.33842 -0.294052 0.168128
                  }
                }
              }
              JOINT lPinky1
              {
                OFFSET 8.27202 -0.0477905 -0.4584
                CHANNELS 3 Zrotation Xrotation Yrotation
                JOINT lPinky2
                {
                  OFFSET 1.82734 -0.647385 -0.700984
                  CHANNELS 3 Zrotation Xrotation Yrotation
                  End Site
                  {
                    OFFSET 1.69225 -0.51767 -0.607171
                  }
                }
              }
            }
          }
        }
      }
    }
  }
  JOINT rButtock
  {
    OFFSET -8.77824 4.35084 1.2192
    CHANNELS 3 Zrotation Xrotation Yrotation
    JOINT rThigh
    {
      OFFSET 0 -1.70687 -2.19456
      CHANNELS 3 Zrotation Xrotation Yrotation
      JOINT rShin
      {
        OFFSET 0 -36.8199 0.73152
        CHANNELS 3 Zrotation Xrotation Yrotation
        JOINT rFoot
        {
          OFFSET 0.73152 -45.1104 -5.12064
          CHANNELS 3 Zrotation Xrotation Yrotation
          End Site
          {
            OFFSET -1.1221 -3.69964 12.103
          }
        }
      }
    }
  }
  JOINT lButtock
  {
    OFFSET 8.77824 4.35084 1.2192
    CHANNELS 3 Zrotation Xrotation Yrotation
    JOINT lThigh
    {
      OFFSET 0 -1.70687 -2.19456
      CHANNELS 3 Zrotation Xrotation Yrotation
      JOINT lShin
      {
        OFFSET 0 -36.8199 0.73152
        CHANNELS 3 Zrotation Xrotation Yrotation
        JOINT lFoot
        {
          OFFSET -0.73152 -45.1104 -5.12064
          CHANNELS 3 Zrotation Xrotation Yrotation
          End Site
          {
            OFFSET 1.1221 -3.69964 12.103
          }
        }
      }
    }
  }
}
MOTION
Frames:	9
Frame Time:	0.00833333
-153.1268 81.436905 28.570211 -67.33801 79.31201 -64.80012 12.711097 5.6767178 5.2347493 2.6780164 -10.002991 2.1520562 -0.8718098 13.285563 8.275829 5.670005 -24.160406 17.696997 -0.0 0.0 -0.0 -0.0 0.0 -0.0 0.0 0.0 0.0 91.3105 30.707596 -4.5508995 -27.191103 -26.997988 62.4704 -1.8275598 -35.3744 -5.726635 -0.0 0.0 -0.0 -0.0 0.0 -0.0 -0.0 0.0 -0.0 7.7309012 5.4749126 0.41732216 -0.0 0.0 -0.0 2.9055667 0.9650755 0.103008196 -0.0 0.0 -0.0 10.278597 0.731881 0.026273511 -0.0 0.0 -0.0 2.2216635 -0.73345095 -0.208321 0.0 0.0 0.0 -108.40499 41.138 36.5471 26.009495 -23.459312 -56.805393 0.22710505 13.4487 -1.9260093 -0.0 0.0 -0.0 -0.0 0.0 -0.0 -0.0 0.0 -0.0 -7.7309012 5.4749126 -0.41732216 -0.0 0.0 -0.0 -2.9055667 0.9650755 -0.103008196 -0.0 0.0 -0.0 -10.278597 0.731881 -0.026273511 -0.0 0.0 -0.0 -2.2216635 -0.73345095 0.208321 -0.0 0.0 -0.0 14.036793 -14.7906065 -10.738993 0.017687133 31.905697 0.6913042 4.199123 -21.6787 12.7430935 0.0 0.0 0.0 25.170404 -42.845604 19.3295 3.6767461 77.149315 -4.2420783 -0.16389789 -4.556558 -2.2570298
-145.8319 81.629906 26.69091 -67.42899 80.166985 -62.32004 11.8533125 1.9863335 9.815851 1.9477831 -9.899039 3.1721861 0.106860876 14.323603 9.640713 3.1324034 -27.393412 19.934763 -0.0 0.0 -0.0 -0.0 0.0 -0.0 -0.0 -0.0 -0.0 90.82878 28.004 -6.7644534 -27.683908 -28.976782 65.618385 -1.9927139 -36.800682 -6.029616 -0.0 0.0 -0.0 -0.0 0.0 -0.0 -0.0 0.0 -0.0 7.7309012 5.4749126 0.41732216 -0.0 0.0 -0.0 2.9055667 0.9650755 0.103008196 -0.0 0.0 -0.0 10.278597 0.731881 0.026273511 -0.0 0.0 -0.0 2.2216635 -0.73345095 -0.208321 -0.0 -0.0 -0.0 -107.266 33.615322 39.24928 25.0551 -21.214895 -53.145298 0.0041314177 1.8346126 -0.25802958 -0.0 0.0 -0.0 -0.0 0.0 -0.0 -0.0 0.0 -0.0 -7.7309012 5.4749126 -0.41732216 -0.0 0.0 -0.0 -2.9055667 0.9650755 -0.103008196 -0.0 0.0 -0.0 -10.278597 0.731881 -0.026273511 -0.0 0.0 -0.0 -2.2216635 -0.73345095 0.208321 -0.0 0.0 -0.0 13.751205 -9.962055 -4.8616266 0.13647549 27.7347 1.0845163 1.3048434 -23.528313 4.927513 0.0 0.0 0.0 23.866402 -47.2191 19.922909 1.0587046 60.92706 -1.8674235 1.567182 -12.954394 3.449318
-137.61884 82.1679 23.67971 -74.62398 82.89905 -70.059845 9.728708 1.4088823 15.066136 0.49114186 -9.699369 4.472108 -1.5495077 12.79572 9.414815 6.2457275 -28.683596 20.541489 -0.0 0.0 -0.0 -0.0 0.0 -0.0 -0.0 0.0 -0.0 87.38329 27.7133 -6.3549576 -28.0946 -31.208899 69.1823 -2.0797253 -37.326706 -6.1520076 -0.0 0.0 -0.0 -0.0 0.0 -0.0 -0.0 0.0 -0.0 7.7309012 5.4749126 0.41732216 -0.0 0.0 -0.0 2.9055667 0.9650755 0.103008196 -0.0 0.0 -0.0 10.278597 0.731881 0.026273511 -0.0 0.0 -0.0 2.2216635 -0.73345095 -0.208321 -0.0 0.0 -0.0 -108.82598 32.104664 45.14342 25.11449 -21.343796 -53.357697 0.056685217 -6.7782955 0.9571611 -0.0 0.0 -0.0 -0.0 0.0 -0.0 -0.0 0.0 -0.0 -7.7309012 5.4749126 -0.41732216 -0.0 0.0 -0.0 -2.9055667 0.9650755 -0.103008196 -0.0 0.0 -0.0 -10.278597 0.731881 -0.026273511 -0.0 0.0 -0.0 -2.2216635 -0.73345095 0.208321 -0.0 0.0 -0.0 9.263377 -2.7480676 -6.287647 0.1386747 24.9217 1.159704 0.51124895 -21.861712 3.1523473 0.0 0.0 0.0 18.023111 -44.150803 21.970005 0.49648556 48.75469 -1.3581283 3.281498 -11.22132 9.56842
-129.4376 81.6313 19.38231 -136.46397 81.857 -132.45985 9.598065 -0.3324423 16.929104 -0.851286 -8.854963 4.901082 -2.272354 11.7458935 9.392292 7.481202 -27.473696 20.81509 -0.0 0.0 -0.0 -0.0 0.0 -0.0 0.0 0.0 -0.0 84.440094 28.334097 -5.3007107 -28.299196 -32.883 71.8805 -1.7999842 -35.01398 -5.6557026 -0.0 0.0 -0.0 -0.0 0.0 -0.0 -0.0 0.0 -0.0 7.7309012 5.4749126 0.41732216 -0.0 0.0 -0.0 2.9055667 0.9650755 0.103008196 -0.0 0.0 -0.0 10.278597 0.731881 0.026273511 -0.0 0.0 -0.0 2.2216635 -0.73345095 -0.208321 0.0 0.0 -0.0 -111.38298 30.207397 49.550903 25.065601 -21.237206 -53.182297 0.30677676 -15.567708 2.2439468 -0.0 0.0 0.0 -0.0 0.0 0.0 -0.0 0.0 0.0 -7.7309012 5.4749126 -0.41732216 -0.0 0.0 0.0 -2.9055667 0.9650755 -0.103008196 -0.0 0.0 0.0 -10.278597 0.731881 -0.026273511 -0.0 0.0 0.0 -2.2216635 -0.73345095 0.208321 -0.0 0.0 -0.0 5.9487996 -4.224155 -6.753898 -0.15350163 37.086704 1.11739 -0.69031674 -11.002101 0.3721035 0.0 0.0 0.0 4.708551 -38.7143 9.913517 0.4653403 47.358006 -1.2281406 4.3221254 -16.02799 10.396423
-123.5233 80.732605 14.22941 -178.59464 71.04902 -172.26012 3.8100705 -3.565452 18.313585 -2.0290096 -9.040884 5.182788 -3.0924075 12.071393 9.026713 7.3418493 -27.69391 20.096392 -0.0 0.0 -0.0 -0.0 0.0 -0.0 -0.0 0.0 -0.0 85.53589 28.062687 -6.008155 -28.417297 -34.710697 74.86749 -1.8185314 -35.300808 -5.7110353 -0.0 0.0 -0.0 -0.0 0.0 -0.0 -0.0 0.0 -0.0 7.7309012 5.4749126 0.41732216 -0.0 0.0 -0.0 2.9055667 0.9650755 0.103008196 -0.0 0.0 -0.0 10.278597 0.731881 0.026273511 -0.0 0.0 -0.0 2.2216635 -0.73345095 -0.208321 -0.0 0.0 -0.0 -110.437 29.880304 50.9547 24.7366 -20.541708 -52.031593 0.50527346 -19.7813 2.8972797 -0.0 0.0 -0.0 -0.0 0.0 -0.0 -0.0 0.0 -0.0 -7.7309012 5.4749126 -0.41732216 -0.0 0.0 -0.0 -2.9055667 0.9650755 -0.103008196 -0.0 0.0 -0.0 -10.278597 0.731881 -0.026273511 -0.0 0.0 -0.0 -2.2216635 -0.73345095 0.208321 -0.0 0.0 -0.0 -6.634203 -20.832298 -16.861805 -1.225005 62.622314 1.7700479 -0.7575568 6.008921 2.6056197 0.0 0.0 0.0 -12.01912 -35.429993 -5.352674 0.46958476 46.11389 -0.93952703 3.896732 -17.802387 8.668831
-118.553406 79.83131 10.31435 170.09596 55.366 178.64003 -3.5517707 -2.5675523 18.5512 -3.5199919 -9.823445 5.192739 -4.129679 11.58239 9.2735615 6.005598 -27.188562 20.34585 -0.0 0.0 -0.0 -0.0 0.0 -0.0 0.0 0.0 0.0 84.56699 28.219296 -1.845291 -28.432505 -35.4498 76.0913 -1.8602614 -35.638504 -5.782948 -0.0 0.0 -0.0 -0.0 0.0 -0.0 -0.0 0.0 -0.0 7.7309012 5.4749126 0.41732216 -0.0 0.0 -0.0 2.9055667 0.9650755 0.103008196 -0.0 0.0 -0.0 10.278597 0.731881 0.026273511 -0.0 0.0 -0.0 2.2216635 -0.73345095 -0.208321 0.0 0.0 0.0 -105.81099 29.516811 47.856785 24.828302 -20.732086 -52.347492 0.5373098 -20.62818 3.0299685 -0.0 -0.0 -0.0 0.0 0.0 -0.0 -0.0 -0.0 -0.0 -7.7309012 5.4749126 -0.41732216 -0.0 -0.0 -0.0 -2.9055667 0.9650755 -0.103008196 -0.0 -0.0 -0.0 -10.278597 0.731881 -0.026273511 -0.0 -0.0 -0.0 -2.2216635 -0.73345095 0.208321 -0.0 0.0 -0.0 -17.81691 -37.4971 -19.112106 -3.070559 75.0842 3.5262225 -1.1182902 -3.1968374 -3.3099158 0.0 0.0 0.0 -20.620409 -29.920595 -9.553965 0.46663034 45.425095 -0.7616994 -0.4594922 -18.67066 -2.4497666
-113.2051 80.0062 8.10373 169.36267 37.331993 -179.06998 -5.925339 -2.168612 18.299793 -4.6671734 -10.400806 5.1471534 -4.944921 11.265881 8.890037 5.0776052 -24.455677 19.297327 -0.0 0.0 -0.0 -0.0 0.0 -0.0 -0.0 0.0 -0.0 81.85759 28.081814 0.8401763 -28.425901 -36.3041 77.51971 -2.0678327 -37.238804 -6.132369 -0.0 0.0 -0.0 -0.0 0.0 -0.0 -0.0 0.0 -0.0 7.7309012 5.4749126 0.41732216 -0.0 0.0 -0.0 2.9055667 0.9650755 0.103008196 -0.0 0.0 -0.0 10.278597 0.731881 0.026273511 -0.0 0.0 -0.0 2.2216635 -0.73345095 -0.208321 -0.0 0.0 -0.0 -102.048996 27.844604 44.099495 24.864607 -20.808184 -52.473507 0.24391621 -13.925685 1.9970456 0.0 0.0 -0.0 0.0 0.0 -0.0 0.0 0.0 -0.0 -7.7309012 5.4749126 -0.41732216 0.0 0.0 -0.0 -2.9055667 0.9650755 -0.103008196 0.0 0.0 -0.0 -10.278597 0.731881 -0.026273511 0.0 0.0 -0.0 -2.2216635 -0.73345095 0.208321 -0.0 0.0 -0.0 -17.389269 -47.233906 -5.350814 -1.7123898 67.7248 2.2744386 -3.1632419 -10.647506 -9.432584 0.0 0.0 0.0 -22.348299 -25.999893 -15.923598 0.44804886 44.937004 -0.7837569 -4.42872 -16.515507 -13.528388
-107.1924 81.5905 6.12586 169.10107 16.65098 -174.73009 -7.8287144 -4.1416616 16.866686 -4.0013876 -10.573236 5.1038384 -6.738655 11.469391 7.1434736 7.7451267 -22.551607 16.142696 -0.0 0.0 -0.0 -0.0 0.0 -0.0 -0.0 0.0 -0.0 82.589294 28.001698 -1.3816541 -28.393194 -37.145798 78.94349 -1.9255775 -36.155895 -5.89435 -0.0 0.0 -0.0 -0.0 0.0 -0.0 -0.0 0.0 -0.0 7.7309012 5.4749126 0.41732216 -0.0 0.0 -0.0 2.9055667 0.9650755 0.103008196 -0.0 0.0 -0.0 10.278597 0.731881 0.026273511 -0.0 0.0 -0.0 2.2216635 -0.73345095 -0.208321 -0.0 0.0 -0.0 -102.23599 27.961395 45.6799 25.521898 -22.264608 -54.866398 0.0019266877 1.2553841 -0.175861 -0.0 0.0 -0.0 -0.0 0.0 -0.0 -0.0 0.0 -0.0 -7.7309012 5.4749126 -0.41732216 -0.0 0.0 -0.0 -2.9055667 0.9650755 -0.103008196 -0.0 0.0 -0.0 -10.278597 0.731881 -0.026273511 -0.0 0.0 -0.0 -2.2216635 -0.73345095 0.208321 -0.0 0.0 -0.0 -20.697498 -43.780098 8.481945 -0.5559728 48.634594 0.9062826 -1.5208435 -15.97089 -3.5701034 0.0 0.0 0.0 -19.362589 -21.769398 -22.838896 0.35021064 39.692295 -0.5772347 -6.5214944 -11.3816 -24.305595
-98.8042 83.2601 3.3545501 172.5459 -5.056985 -172.22006 -5.388772 -4.362894 17.248299 -2.807163 -9.949456 4.4616003 -8.20349 12.610695 4.1710944 9.015382 -23.41039 10.53442 -0.0 0.0 -0.0 -0.0 0.0 -0.0 -0.0 -0.0 -0.0 87.638504 32.21761 -7.1851177 -28.338902 -37.926292 80.2799 -1.6909568 -34.231693 -5.487337 -0.0 0.0 -0.0 -0.0 0.0 -0.0 -0.0 0.0 -0.0 7.7309012 5.4749126 0.41732216 -0.0 0.0 -0.0 2.9055667 0.9650755 0.103008196 -0.0 0.0 -0.0 10.278597 0.731881 0.026273511 -0.0 0.0 -0.0 2.2216635 -0.73345095 -0.208321 -0.0 -0.0 -0.0 -101.61999 28.2648 46.697586 26.037907 -23.532497 -56.9238 0.08161328 7.3942018 -1.0460742 -0.0 -0.0 -0.0 -0.0 -0.0 -0.0 -0.0 -0.0 -0.0 -7.7309012 5.4749126 -0.41732216 -0.0 -0.0 -0.0 -2.9055667 0.9650755 -0.103008196 -0.0 -0.0 -0.0 -10.278597 0.731881 -0.026273511 -0.0 -0.0 -0.0 -2.2216635 -0.73345095 0.208321 -0.0 0.0 -0.0 -17.072393 -32.420998 15.883095 -0.2531139 35.5566 0.411599 1.5653249 -13.390284 6.013207 0.0 0.0 0.0 -7.685798 -19.487888 -25.975313 0.29312435 35.82049 -0.47068182 -6.007724 -5.1405544 -34.675995
